<svg width="200" height="200" xmlns="http://www.w3.org/2000/svg">

 <g>
  <title>Layer 1</title>
  <g fill="white" transform="rotate(-179.854 386 300.5)" stroke="null">
   <path fill="#7b40f2" stroke="null" d="m386,208.04081c-32.04845,0 -61.07374,26.21989 -61.07374,58.5729c0,32.34531 26.4831,70.96243 61.07374,126.34548c34.59064,-55.38305 61.07374,-94.00018 61.07374,-126.34548c0,-32.35301 -29.01766,-58.5729 -61.07374,-58.5729zm0,84.75426c-12.6499,0 -22.90265,-10.34772 -22.90265,-23.1148s10.25275,-23.1148 22.90265,-23.1148s22.90265,10.34772 22.90265,23.1148s-10.25275,23.1148 -22.90265,23.1148z"/>
  </g>
  <g>
   <g>
    <title>Layer 1</title>
    <g transform="rotate(-179.854 100 100)" stroke="null" fill="white">
     <path d="m100,7.54081c-32.04845,0 -61.07374,26.21989 -61.07374,58.5729c0,32.34531 26.4831,70.96243 61.07374,126.34548c34.59064,-55.38305 61.07374,-94.00018 61.07374,-126.34548c0,-32.35301 -29.01766,-58.5729 -61.07374,-58.5729zm0,84.75426c-12.6499,0 -22.90265,-10.34772 -22.90265,-23.1148s10.25275,-23.1148 22.90265,-23.1148s22.90265,10.34772 22.90265,23.1148s-10.25275,23.1148 -22.90265,23.1148z" stroke="null" fill="#7b40f2"/>
    </g>
   </g>
  </g>
 </g>
</svg>